<svg xmlns="http://www.w3.org/2000/svg" xmlns:xlink="http://www.w3.org/1999/xlink" version="1.1" class="marks" width="506" height="364" viewBox="0 0 506 364"><rect width="506" height="364" fill="white"/><g fill="none" stroke-miterlimit="10" transform="translate(44,27)"><g class="mark-group role-frame root" role="graphics-object" aria-roledescription="group mark container"><g transform="translate(0,0)"><path class="background" aria-hidden="true" d="M0.5,0.5h400v300h-400Z" stroke="#ddd"/><g><g class="mark-group role-axis" aria-hidden="true"><g transform="translate(0.5,300.5)"><path class="background" aria-hidden="true" d="M0,0h0v0h0Z" pointer-events="none"/><g><g class="mark-rule role-axis-grid" pointer-events="none"><line transform="translate(0,-300)" x2="0" y2="300" stroke="#ddd" stroke-width="1" opacity="1"/><line transform="translate(33,-300)" x2="0" y2="300" stroke="#ddd" stroke-width="1" opacity="1"/><line transform="translate(67,-300)" x2="0" y2="300" stroke="#ddd" stroke-width="1" opacity="1"/><line transform="translate(100,-300)" x2="0" y2="300" stroke="#ddd" stroke-width="1" opacity="1"/><line transform="translate(133,-300)" x2="0" y2="300" stroke="#ddd" stroke-width="1" opacity="1"/><line transform="translate(167,-300)" x2="0" y2="300" stroke="#ddd" stroke-width="1" opacity="1"/><line transform="translate(200,-300)" x2="0" y2="300" stroke="#ddd" stroke-width="1" opacity="1"/><line transform="translate(233,-300)" x2="0" y2="300" stroke="#ddd" stroke-width="1" opacity="1"/><line transform="translate(267,-300)" x2="0" y2="300" stroke="#ddd" stroke-width="1" opacity="1"/><line transform="translate(300,-300)" x2="0" y2="300" stroke="#ddd" stroke-width="1" opacity="1"/><line transform="translate(333,-300)" x2="0" y2="300" stroke="#ddd" stroke-width="1" opacity="1"/><line transform="translate(367,-300)" x2="0" y2="300" stroke="#ddd" stroke-width="1" opacity="1"/><line transform="translate(400,-300)" x2="0" y2="300" stroke="#ddd" stroke-width="1" opacity="1"/></g></g><path class="foreground" aria-hidden="true" d="" pointer-events="none" display="none"/></g></g><g class="mark-group role-axis" aria-hidden="true"><g transform="translate(0.5,0.5)"><path class="background" aria-hidden="true" d="M0,0h0v0h0Z" pointer-events="none"/><g><g class="mark-rule role-axis-grid" pointer-events="none"><line transform="translate(0,300)" x2="400" y2="0" stroke="#ddd" stroke-width="1" opacity="1"/><line transform="translate(0,263)" x2="400" y2="0" stroke="#ddd" stroke-width="1" opacity="1"/><line transform="translate(0,225)" x2="400" y2="0" stroke="#ddd" stroke-width="1" opacity="1"/><line transform="translate(0,188)" x2="400" y2="0" stroke="#ddd" stroke-width="1" opacity="1"/><line transform="translate(0,150)" x2="400" y2="0" stroke="#ddd" stroke-width="1" opacity="1"/><line transform="translate(0,113)" x2="400" y2="0" stroke="#ddd" stroke-width="1" opacity="1"/><line transform="translate(0,75)" x2="400" y2="0" stroke="#ddd" stroke-width="1" opacity="1"/><line transform="translate(0,38)" x2="400" y2="0" stroke="#ddd" stroke-width="1" opacity="1"/><line transform="translate(0,0)" x2="400" y2="0" stroke="#ddd" stroke-width="1" opacity="1"/></g></g><path class="foreground" aria-hidden="true" d="" pointer-events="none" display="none"/></g></g><g class="mark-group role-axis" role="graphics-symbol" aria-roledescription="axis" aria-label="X-axis titled 'Production Volume (1000 tons)' for a linear scale with values from 0 to 120,000"><g transform="translate(0.5,300.5)"><path class="background" aria-hidden="true" d="M0,0h0v0h0Z" pointer-events="none"/><g><g class="mark-rule role-axis-tick" pointer-events="none"><line transform="translate(0,0)" x2="0" y2="5" stroke="#888" stroke-width="1" opacity="1"/><line transform="translate(33,0)" x2="0" y2="5" stroke="#888" stroke-width="1" opacity="1"/><line transform="translate(67,0)" x2="0" y2="5" stroke="#888" stroke-width="1" opacity="1"/><line transform="translate(100,0)" x2="0" y2="5" stroke="#888" stroke-width="1" opacity="1"/><line transform="translate(133,0)" x2="0" y2="5" stroke="#888" stroke-width="1" opacity="1"/><line transform="translate(167,0)" x2="0" y2="5" stroke="#888" stroke-width="1" opacity="1"/><line transform="translate(200,0)" x2="0" y2="5" stroke="#888" stroke-width="1" opacity="1"/><line transform="translate(233,0)" x2="0" y2="5" stroke="#888" stroke-width="1" opacity="1"/><line transform="translate(267,0)" x2="0" y2="5" stroke="#888" stroke-width="1" opacity="1"/><line transform="translate(300,0)" x2="0" y2="5" stroke="#888" stroke-width="1" opacity="1"/><line transform="translate(333,0)" x2="0" y2="5" stroke="#888" stroke-width="1" opacity="1"/><line transform="translate(367,0)" x2="0" y2="5" stroke="#888" stroke-width="1" opacity="1"/><line transform="translate(400,0)" x2="0" y2="5" stroke="#888" stroke-width="1" opacity="1"/></g><g class="mark-text role-axis-label" pointer-events="none"><text text-anchor="start" transform="translate(0,15)" font-family="sans-serif" font-size="10px" fill="#000" opacity="1">0</text><text text-anchor="middle" transform="translate(33.33333333333333,15)" font-family="sans-serif" font-size="10px" fill="#000" opacity="0">10,000</text><text text-anchor="middle" transform="translate(66.66666666666666,15)" font-family="sans-serif" font-size="10px" fill="#000" opacity="1">20,000</text><text text-anchor="middle" transform="translate(100,15)" font-family="sans-serif" font-size="10px" fill="#000" opacity="0">30,000</text><text text-anchor="middle" transform="translate(133.33333333333331,15)" font-family="sans-serif" font-size="10px" fill="#000" opacity="1">40,000</text><text text-anchor="middle" transform="translate(166.66666666666669,15)" font-family="sans-serif" font-size="10px" fill="#000" opacity="0">50,000</text><text text-anchor="middle" transform="translate(200,15)" font-family="sans-serif" font-size="10px" fill="#000" opacity="1">60,000</text><text text-anchor="middle" transform="translate(233.33333333333334,15)" font-family="sans-serif" font-size="10px" fill="#000" opacity="0">70,000</text><text text-anchor="middle" transform="translate(266.66666666666663,15)" font-family="sans-serif" font-size="10px" fill="#000" opacity="1">80,000</text><text text-anchor="middle" transform="translate(300,15)" font-family="sans-serif" font-size="10px" fill="#000" opacity="0">90,000</text><text text-anchor="middle" transform="translate(333.33333333333337,15)" font-family="sans-serif" font-size="10px" fill="#000" opacity="1">100,000</text><text text-anchor="middle" transform="translate(366.66666666666663,15)" font-family="sans-serif" font-size="10px" fill="#000" opacity="0">110,000</text><text text-anchor="end" transform="translate(400,15)" font-family="sans-serif" font-size="10px" fill="#000" opacity="1">120,000</text></g><g class="mark-rule role-axis-domain" pointer-events="none"><line transform="translate(0,0)" x2="400" y2="0" stroke="#888" stroke-width="1" opacity="1"/></g><g class="mark-text role-axis-title" pointer-events="none"><text text-anchor="middle" transform="translate(200,30)" font-family="sans-serif" font-size="11px" font-weight="bold" fill="#000" opacity="1">Production Volume (1000 tons)</text></g></g><path class="foreground" aria-hidden="true" d="" pointer-events="none" display="none"/></g></g><g class="mark-group role-axis" role="graphics-symbol" aria-roledescription="axis" aria-label="Y-axis titled 'Average Price' for a linear scale with values from 0 to 400"><g transform="translate(0.5,0.5)"><path class="background" aria-hidden="true" d="M0,0h0v0h0Z" pointer-events="none"/><g><g class="mark-rule role-axis-tick" pointer-events="none"><line transform="translate(0,300)" x2="-5" y2="0" stroke="#888" stroke-width="1" opacity="1"/><line transform="translate(0,263)" x2="-5" y2="0" stroke="#888" stroke-width="1" opacity="1"/><line transform="translate(0,225)" x2="-5" y2="0" stroke="#888" stroke-width="1" opacity="1"/><line transform="translate(0,188)" x2="-5" y2="0" stroke="#888" stroke-width="1" opacity="1"/><line transform="translate(0,150)" x2="-5" y2="0" stroke="#888" stroke-width="1" opacity="1"/><line transform="translate(0,113)" x2="-5" y2="0" stroke="#888" stroke-width="1" opacity="1"/><line transform="translate(0,75)" x2="-5" y2="0" stroke="#888" stroke-width="1" opacity="1"/><line transform="translate(0,38)" x2="-5" y2="0" stroke="#888" stroke-width="1" opacity="1"/><line transform="translate(0,0)" x2="-5" y2="0" stroke="#888" stroke-width="1" opacity="1"/></g><g class="mark-text role-axis-label" pointer-events="none"><text text-anchor="end" transform="translate(-7,303)" font-family="sans-serif" font-size="10px" fill="#000" opacity="1">0</text><text text-anchor="end" transform="translate(-7,265.5)" font-family="sans-serif" font-size="10px" fill="#000" opacity="1">50</text><text text-anchor="end" transform="translate(-7,228)" font-family="sans-serif" font-size="10px" fill="#000" opacity="1">100</text><text text-anchor="end" transform="translate(-7,190.5)" font-family="sans-serif" font-size="10px" fill="#000" opacity="1">150</text><text text-anchor="end" transform="translate(-7,153)" font-family="sans-serif" font-size="10px" fill="#000" opacity="1">200</text><text text-anchor="end" transform="translate(-7,115.5)" font-family="sans-serif" font-size="10px" fill="#000" opacity="1">250</text><text text-anchor="end" transform="translate(-7,78)" font-family="sans-serif" font-size="10px" fill="#000" opacity="1">300</text><text text-anchor="end" transform="translate(-7,40.5)" font-family="sans-serif" font-size="10px" fill="#000" opacity="1">350</text><text text-anchor="end" transform="translate(-7,3)" font-family="sans-serif" font-size="10px" fill="#000" opacity="1">400</text></g><g class="mark-rule role-axis-domain" pointer-events="none"><line transform="translate(0,300)" x2="0" y2="-300" stroke="#888" stroke-width="1" opacity="1"/></g><g class="mark-text role-axis-title" pointer-events="none"><text text-anchor="middle" transform="translate(-27.6845703125,150) rotate(-90) translate(0,-2)" font-family="sans-serif" font-size="11px" font-weight="bold" fill="#000" opacity="1">Average Price</text></g></g><path class="foreground" aria-hidden="true" d="" pointer-events="none" display="none"/></g></g><g class="mark-symbol role-mark marks" role="graphics-object" aria-roledescription="symbol mark container"><path aria-label="YEAR: 1994; Commodity: RICE; Production: 79273.91; Price: 7.85; Production Volume (1000 tons): 79273.91; Average Price: 7.85" role="graphics-symbol" aria-roledescription="circle" transform="translate(264.2463666666667,294.1125)" d="M3.873,0A3.873,3.873,0,1,1,-3.873,0A3.873,3.873,0,1,1,3.873,0" fill="#1f77b4" stroke-width="2" opacity="0.7"/><path aria-label="YEAR: 1995; Commodity: RICE; Production: 72615.41; Price: 8.11964285714; Production Volume (1000 tons): 72615.41; Average Price: 8.11964285714" role="graphics-symbol" aria-roledescription="circle" transform="translate(242.0513666666667,293.91026785714286)" d="M3.873,0A3.873,3.873,0,1,1,-3.873,0A3.873,3.873,0,1,1,3.873,0" fill="#aec7e8" stroke-width="2" opacity="0.7"/><path aria-label="YEAR: 1996; Commodity: RICE; Production: 78120.14; Price: 8.97658959538; Production Volume (1000 tons): 78120.14; Average Price: 8.97658959538" role="graphics-symbol" aria-roledescription="circle" transform="translate(260.40046666666666,293.2675578034682)" d="M3.873,0A3.873,3.873,0,1,1,-3.873,0A3.873,3.873,0,1,1,3.873,0" fill="#ff7f0e" stroke-width="2" opacity="0.7"/><path aria-label="YEAR: 1997; Commodity: RICE; Production: 80504.09; Price: 9.65176470588; Production Volume (1000 tons): 80504.09; Average Price: 9.65176470588" role="graphics-symbol" aria-roledescription="circle" transform="translate(268.3469666666666,292.7611764705882)" d="M3.873,0A3.873,3.873,0,1,1,-3.873,0A3.873,3.873,0,1,1,3.873,0" fill="#ffbb78" stroke-width="2" opacity="0.7"/><path aria-label="YEAR: 1998; Commodity: RICE; Production: 82394.23; Price: 10.1245762712; Production Volume (1000 tons): 82394.23; Average Price: 10.1245762712" role="graphics-symbol" aria-roledescription="circle" transform="translate(274.6474333333333,292.40656779661015)" d="M3.873,0A3.873,3.873,0,1,1,-3.873,0A3.873,3.873,0,1,1,3.873,0" fill="#2ca02c" stroke-width="2" opacity="0.7"/><path aria-label="YEAR: 1999; Commodity: RICE; Production: 86527.07; Price: 11.2119205298; Production Volume (1000 tons): 86527.07; Average Price: 11.2119205298" role="graphics-symbol" aria-roledescription="circle" transform="translate(288.4235666666667,291.591059602649)" d="M3.873,0A3.873,3.873,0,1,1,-3.873,0A3.873,3.873,0,1,1,3.873,0" fill="#98df8a" stroke-width="2" opacity="0.7"/><path aria-label="YEAR: 2000; Commodity: RICE; Production: 83476.59; Price: 189.745096154; Production Volume (1000 tons): 83476.59; Average Price: 189.745096154" role="graphics-symbol" aria-roledescription="circle" transform="translate(278.25530000000003,157.6911778846154)" d="M3.873,0A3.873,3.873,0,1,1,-3.873,0A3.873,3.873,0,1,1,3.873,0" fill="#d62728" stroke-width="2" opacity="0.7"/><path aria-label="YEAR: 2001; Commodity: RICE; Production: 91556.12; Price: 317.05446281; Production Volume (1000 tons): 91556.12; Average Price: 317.05446281" role="graphics-symbol" aria-roledescription="circle" transform="translate(305.1870666666666,62.20915289256202)" d="M3.873,0A3.873,3.873,0,1,1,-3.873,0A3.873,3.873,0,1,1,3.873,0" fill="#ff9896" stroke-width="2" opacity="0.7"/><path aria-label="YEAR: 2002; Commodity: RICE; Production: 69917.86; Price: 185.70395; Production Volume (1000 tons): 69917.86; Average Price: 185.70395" role="graphics-symbol" aria-roledescription="circle" transform="translate(233.05953333333335,160.7220375)" d="M3.873,0A3.873,3.873,0,1,1,-3.873,0A3.873,3.873,0,1,1,3.873,0" fill="#9467bd" stroke-width="2" opacity="0.7"/><path aria-label="YEAR: 2003; Commodity: RICE; Production: 84971.15; Price: 169.545023923; Production Volume (1000 tons): 84971.15; Average Price: 169.545023923" role="graphics-symbol" aria-roledescription="circle" transform="translate(283.23716666666667,172.84123205741625)" d="M3.873,0A3.873,3.873,0,1,1,-3.873,0A3.873,3.873,0,1,1,3.873,0" fill="#c5b0d5" stroke-width="2" opacity="0.7"/><path aria-label="YEAR: 2004; Commodity: RICE; Production: 80951.64; Price: 174.053428571; Production Volume (1000 tons): 80951.64; Average Price: 174.053428571" role="graphics-symbol" aria-roledescription="circle" transform="translate(269.8388,169.45992857142858)" d="M3.873,0A3.873,3.873,0,1,1,-3.873,0A3.873,3.873,0,1,1,3.873,0" fill="#8c564b" stroke-width="2" opacity="0.7"/><path aria-label="YEAR: 2005; Commodity: RICE; Production: 87315.59; Price: 195.197867299; Production Volume (1000 tons): 87315.59; Average Price: 195.197867299" role="graphics-symbol" aria-roledescription="circle" transform="translate(291.05196666666666,153.60159952606634)" d="M3.873,0A3.873,3.873,0,1,1,-3.873,0A3.873,3.873,0,1,1,3.873,0" fill="#c49c94" stroke-width="2" opacity="0.7"/><path aria-label="YEAR: 2006; Commodity: RICE; Production: 89984.14; Price: 205.699257426; Production Volume (1000 tons): 89984.14; Average Price: 205.699257426" role="graphics-symbol" aria-roledescription="circle" transform="translate(299.94713333333334,145.72555693069307)" d="M3.873,0A3.873,3.873,0,1,1,-3.873,0A3.873,3.873,0,1,1,3.873,0" fill="#e377c2" stroke-width="2" opacity="0.7"/><path aria-label="YEAR: 2007; Commodity: RICE; Production: 93002.77; Price: 244.269859813; Production Volume (1000 tons): 93002.77; Average Price: 244.269859813" role="graphics-symbol" aria-roledescription="circle" transform="translate(310.0092333333333,116.79760514018693)" d="M3.873,0A3.873,3.873,0,1,1,-3.873,0A3.873,3.873,0,1,1,3.873,0" fill="#f7b6d2" stroke-width="2" opacity="0.7"/><path aria-label="YEAR: 2008; Commodity: RICE; Production: 95226.84; Price: 284.34507177; Production Volume (1000 tons): 95226.84; Average Price: 284.34507177" role="graphics-symbol" aria-roledescription="circle" transform="translate(317.4228,86.74119617224879)" d="M3.873,0A3.873,3.873,0,1,1,-3.873,0A3.873,3.873,0,1,1,3.873,0" fill="#7f7f7f" stroke-width="2" opacity="0.7"/><path aria-label="YEAR: 2009; Commodity: RICE; Production: 88070.69; Price: 289.093561644; Production Volume (1000 tons): 88070.69; Average Price: 289.093561644" role="graphics-symbol" aria-roledescription="circle" transform="translate(293.56896666666665,83.17982876712333)" d="M3.873,0A3.873,3.873,0,1,1,-3.873,0A3.873,3.873,0,1,1,3.873,0" fill="#c7c7c7" stroke-width="2" opacity="0.7"/><path aria-label="YEAR: 2010; Commodity: RICE; Production: 94300.23; Price: 372.582587065; Production Volume (1000 tons): 94300.23; Average Price: 372.582587065" role="graphics-symbol" aria-roledescription="circle" transform="translate(314.3341,20.563059701492502)" d="M3.873,0A3.873,3.873,0,1,1,-3.873,0A3.873,3.873,0,1,1,3.873,0" fill="#bcbd22" stroke-width="2" opacity="0.7"/><path aria-label="YEAR: 2011; Commodity: RICE; Production: 102216.27; Price: 204.046023256; Production Volume (1000 tons): 102216.27; Average Price: 204.046023256" role="graphics-symbol" aria-roledescription="circle" transform="translate(340.7209,146.96548255813954)" d="M3.873,0A3.873,3.873,0,1,1,-3.873,0A3.873,3.873,0,1,1,3.873,0" fill="#dbdb8d" stroke-width="2" opacity="0.7"/><path aria-label="YEAR: 2012; Commodity: RICE; Production: 104237.62; Price: 207.637823409; Production Volume (1000 tons): 104237.62; Average Price: 207.637823409" role="graphics-symbol" aria-roledescription="circle" transform="translate(347.4587333333333,144.27163244353181)" d="M3.873,0A3.873,3.873,0,1,1,-3.873,0A3.873,3.873,0,1,1,3.873,0" fill="#17becf" stroke-width="2" opacity="0.7"/><path aria-label="YEAR: 2013; Commodity: RICE; Production: 109552.42; Price: 217.750375783; Production Volume (1000 tons): 109552.42; Average Price: 217.750375783" role="graphics-symbol" aria-roledescription="circle" transform="translate(365.17473333333334,136.68721816283923)" d="M3.873,0A3.873,3.873,0,1,1,-3.873,0A3.873,3.873,0,1,1,3.873,0" fill="#9edae5" stroke-width="2" opacity="0.7"/><path aria-label="YEAR: 2014; Commodity: RICE; Production: 112551.62; Price: 233.432630522; Production Volume (1000 tons): 112551.62; Average Price: 233.432630522" role="graphics-symbol" aria-roledescription="circle" transform="translate(375.17206666666664,124.92552710843373)" d="M3.873,0A3.873,3.873,0,1,1,-3.873,0A3.873,3.873,0,1,1,3.873,0" fill="#1f77b4" stroke-width="2" opacity="0.7"/><path aria-label="YEAR: 2015; Commodity: RICE; Production: 98820.51; Price: 168.752073171; Production Volume (1000 tons): 98820.51; Average Price: 168.752073171" role="graphics-symbol" aria-roledescription="circle" transform="translate(329.40169999999995,173.43594512195122)" d="M3.873,0A3.873,3.873,0,1,1,-3.873,0A3.873,3.873,0,1,1,3.873,0" fill="#aec7e8" stroke-width="2" opacity="0.7"/><path aria-label="YEAR: 2016; Commodity: RICE; Production: 117614.1; Price: 195.177234043; Production Volume (1000 tons): 117614.1; Average Price: 195.177234043" role="graphics-symbol" aria-roledescription="circle" transform="translate(392.047,153.6170744680851)" d="M3.873,0A3.873,3.873,0,1,1,-3.873,0A3.873,3.873,0,1,1,3.873,0" fill="#ff7f0e" stroke-width="2" opacity="0.7"/><path aria-label="YEAR: 2017; Commodity: RICE; Production: 114319.61; Price: 225.744602888; Production Volume (1000 tons): 114319.61; Average Price: 225.744602888" role="graphics-symbol" aria-roledescription="circle" transform="translate(381.06536666666665,130.691547833935)" d="M3.873,0A3.873,3.873,0,1,1,-3.873,0A3.873,3.873,0,1,1,3.873,0" fill="#ffbb78" stroke-width="2" opacity="0.7"/><path aria-label="YEAR: 1994; Commodity: WHEAT; Production: 65462.3; Price: 5.98910891089; Production Volume (1000 tons): 65462.3; Average Price: 5.98910891089" role="graphics-symbol" aria-roledescription="circle" transform="translate(218.20766666666665,295.5081683168317)" d="M3.873,0A3.873,3.873,0,1,1,-3.873,0A3.873,3.873,0,1,1,3.873,0" fill="#1f77b4" stroke-width="2" opacity="0.7"/><path aria-label="YEAR: 1995; Commodity: WHEAT; Production: 61157.13; Price: 5.94726027397; Production Volume (1000 tons): 61157.13; Average Price: 5.94726027397" role="graphics-symbol" aria-roledescription="circle" transform="translate(203.8571,295.53955479452054)" d="M3.873,0A3.873,3.873,0,1,1,-3.873,0A3.873,3.873,0,1,1,3.873,0" fill="#aec7e8" stroke-width="2" opacity="0.7"/><path aria-label="YEAR: 1996; Commodity: WHEAT; Production: 68631.56; Price: 7.39861111111; Production Volume (1000 tons): 68631.56; Average Price: 7.39861111111" role="graphics-symbol" aria-roledescription="circle" transform="translate(228.77186666666665,294.4510416666667)" d="M3.873,0A3.873,3.873,0,1,1,-3.873,0A3.873,3.873,0,1,1,3.873,0" fill="#ff7f0e" stroke-width="2" opacity="0.7"/><path aria-label="YEAR: 1997; Commodity: WHEAT; Production: 65085.19; Price: 8.23697183099; Production Volume (1000 tons): 65085.19; Average Price: 8.23697183099" role="graphics-symbol" aria-roledescription="circle" transform="translate(216.95063333333334,293.8222711267606)" d="M3.873,0A3.873,3.873,0,1,1,-3.873,0A3.873,3.873,0,1,1,3.873,0" fill="#ffbb78" stroke-width="2" opacity="0.7"/><path aria-label="YEAR: 1998; Commodity: WHEAT; Production: 70057.41; Price: 8.37578125; Production Volume (1000 tons): 70057.41; Average Price: 8.37578125" role="graphics-symbol" aria-roledescription="circle" transform="translate(233.52470000000002,293.7181640625)" d="M3.873,0A3.873,3.873,0,1,1,-3.873,0A3.873,3.873,0,1,1,3.873,0" fill="#2ca02c" stroke-width="2" opacity="0.7"/><path aria-label="YEAR: 1999; Commodity: WHEAT; Production: 76209.47; Price: 8.44690721649; Production Volume (1000 tons): 76209.47; Average Price: 8.44690721649" role="graphics-symbol" aria-roledescription="circle" transform="translate(254.0315666666667,293.66481958762887)" d="M3.873,0A3.873,3.873,0,1,1,-3.873,0A3.873,3.873,0,1,1,3.873,0" fill="#98df8a" stroke-width="2" opacity="0.7"/><path aria-label="YEAR: 2000; Commodity: WHEAT; Production: 69617.04; Price: 217.508214286; Production Volume (1000 tons): 69617.04; Average Price: 217.508214286" role="graphics-symbol" aria-roledescription="circle" transform="translate(232.05679999999998,136.86883928571427)" d="M3.873,0A3.873,3.873,0,1,1,-3.873,0A3.873,3.873,0,1,1,3.873,0" fill="#d62728" stroke-width="2" opacity="0.7"/><path aria-label="YEAR: 2001; Commodity: WHEAT; Production: 72186.1; Price: 297.337476636; Production Volume (1000 tons): 72186.1; Average Price: 297.337476636" role="graphics-symbol" aria-roledescription="circle" transform="translate(240.62033333333335,76.99689252336451)" d="M3.873,0A3.873,3.873,0,1,1,-3.873,0A3.873,3.873,0,1,1,3.873,0" fill="#ff9896" stroke-width="2" opacity="0.7"/><path aria-label="YEAR: 2002; Commodity: WHEAT; Production: 65404.66; Price: 190.052638037; Production Volume (1000 tons): 65404.66; Average Price: 190.052638037" role="graphics-symbol" aria-roledescription="circle" transform="translate(218.0155333333333,157.46052147239266)" d="M3.873,0A3.873,3.873,0,1,1,-3.873,0A3.873,3.873,0,1,1,3.873,0" fill="#9467bd" stroke-width="2" opacity="0.7"/><path aria-label="YEAR: 2003; Commodity: WHEAT; Production: 72317.08; Price: 200.348882682; Production Volume (1000 tons): 72317.08; Average Price: 200.348882682" role="graphics-symbol" aria-roledescription="circle" transform="translate(241.05693333333335,149.73833798882683)" d="M3.873,0A3.873,3.873,0,1,1,-3.873,0A3.873,3.873,0,1,1,3.873,0" fill="#c5b0d5" stroke-width="2" opacity="0.7"/><path aria-label="YEAR: 2004; Commodity: WHEAT; Production: 69013.36; Price: 179.027283237; Production Volume (1000 tons): 69013.36; Average Price: 179.027283237" role="graphics-symbol" aria-roledescription="circle" transform="translate(230.04453333333333,165.72953757225432)" d="M3.873,0A3.873,3.873,0,1,1,-3.873,0A3.873,3.873,0,1,1,3.873,0" fill="#8c564b" stroke-width="2" opacity="0.7"/><path aria-label="YEAR: 2005; Commodity: WHEAT; Production: 68379.02; Price: 193.111111111; Production Volume (1000 tons): 68379.02; Average Price: 193.111111111" role="graphics-symbol" aria-roledescription="circle" transform="translate(227.93006666666668,155.16666666666669)" d="M3.873,0A3.873,3.873,0,1,1,-3.873,0A3.873,3.873,0,1,1,3.873,0" fill="#c49c94" stroke-width="2" opacity="0.7"/><path aria-label="YEAR: 2006; Commodity: WHEAT; Production: 77709.5; Price: 271.853355705; Production Volume (1000 tons): 77709.5; Average Price: 271.853355705" role="graphics-symbol" aria-roledescription="circle" transform="translate(259.0316666666667,96.1099832214765)" d="M3.873,0A3.873,3.873,0,1,1,-3.873,0A3.873,3.873,0,1,1,3.873,0" fill="#e377c2" stroke-width="2" opacity="0.7"/><path aria-label="YEAR: 2007; Commodity: WHEAT; Production: 80126.73; Price: 274.295508982; Production Volume (1000 tons): 80126.73; Average Price: 274.295508982" role="graphics-symbol" aria-roledescription="circle" transform="translate(267.0891,94.27836826347304)" d="M3.873,0A3.873,3.873,0,1,1,-3.873,0A3.873,3.873,0,1,1,3.873,0" fill="#f7b6d2" stroke-width="2" opacity="0.7"/><path aria-label="YEAR: 2008; Commodity: WHEAT; Production: 81613.21; Price: 283.248333333; Production Volume (1000 tons): 81613.21; Average Price: 283.248333333" role="graphics-symbol" aria-roledescription="circle" transform="translate(272.04403333333335,87.56375000000001)" d="M3.873,0A3.873,3.873,0,1,1,-3.873,0A3.873,3.873,0,1,1,3.873,0" fill="#7f7f7f" stroke-width="2" opacity="0.7"/><path aria-label="YEAR: 2009; Commodity: WHEAT; Production: 81022.42; Price: 314.990514286; Production Volume (1000 tons): 81022.42; Average Price: 314.990514286" role="graphics-symbol" aria-roledescription="circle" transform="translate(270.0747333333333,63.75711428571431)" d="M3.873,0A3.873,3.873,0,1,1,-3.873,0A3.873,3.873,0,1,1,3.873,0" fill="#c7c7c7" stroke-width="2" opacity="0.7"/><path aria-label="YEAR: 2010; Commodity: WHEAT; Production: 93438.55; Price: 368.476368715; Production Volume (1000 tons): 93438.55; Average Price: 368.476368715" role="graphics-symbol" aria-roledescription="circle" transform="translate(311.46183333333335,23.642723463687133)" d="M3.873,0A3.873,3.873,0,1,1,-3.873,0A3.873,3.873,0,1,1,3.873,0" fill="#bcbd22" stroke-width="2" opacity="0.7"/><path aria-label="YEAR: 2011; Commodity: WHEAT; Production: 100269.99; Price: 162.861932367; Production Volume (1000 tons): 100269.99; Average Price: 162.861932367" role="graphics-symbol" aria-roledescription="circle" transform="translate(334.2333,177.85355072463767)" d="M3.873,0A3.873,3.873,0,1,1,-3.873,0A3.873,3.873,0,1,1,3.873,0" fill="#dbdb8d" stroke-width="2" opacity="0.7"/><path aria-label="YEAR: 2012; Commodity: WHEAT; Production: 97177.86; Price: 165.777570093; Production Volume (1000 tons): 97177.86; Average Price: 165.777570093" role="graphics-symbol" aria-roledescription="circle" transform="translate(323.9262,175.66682242990652)" d="M3.873,0A3.873,3.873,0,1,1,-3.873,0A3.873,3.873,0,1,1,3.873,0" fill="#17becf" stroke-width="2" opacity="0.7"/><path aria-label="YEAR: 2013; Commodity: WHEAT; Production: 102506.18; Price: 169.227505774; Production Volume (1000 tons): 102506.18; Average Price: 169.227505774" role="graphics-symbol" aria-roledescription="circle" transform="translate(341.68726666666663,173.07937066974594)" d="M3.873,0A3.873,3.873,0,1,1,-3.873,0A3.873,3.873,0,1,1,3.873,0" fill="#9edae5" stroke-width="2" opacity="0.7"/><path aria-label="YEAR: 2014; Commodity: WHEAT; Production: 84866.58; Price: 186.828478747; Production Volume (1000 tons): 84866.58; Average Price: 186.828478747" role="graphics-symbol" aria-roledescription="circle" transform="translate(282.8886,159.8786409395973)" d="M3.873,0A3.873,3.873,0,1,1,-3.873,0A3.873,3.873,0,1,1,3.873,0" fill="#1f77b4" stroke-width="2" opacity="0.7"/><path aria-label="YEAR: 2015; Commodity: WHEAT; Production: 93824.98; Price: 143.558390342; Production Volume (1000 tons): 93824.98; Average Price: 143.558390342" role="graphics-symbol" aria-roledescription="circle" transform="translate(312.74993333333333,192.33120724346077)" d="M3.873,0A3.873,3.873,0,1,1,-3.873,0A3.873,3.873,0,1,1,3.873,0" fill="#aec7e8" stroke-width="2" opacity="0.7"/><path aria-label="YEAR: 2016; Commodity: WHEAT; Production: 112962.82; Price: 164.388046875; Production Volume (1000 tons): 112962.82; Average Price: 164.388046875" role="graphics-symbol" aria-roledescription="circle" transform="translate(376.5427333333334,176.70896484375)" d="M3.873,0A3.873,3.873,0,1,1,-3.873,0A3.873,3.873,0,1,1,3.873,0" fill="#ff7f0e" stroke-width="2" opacity="0.7"/><path aria-label="YEAR: 2017; Commodity: WHEAT; Production: 110418.21; Price: 190.711391129; Production Volume (1000 tons): 110418.21; Average Price: 190.711391129" role="graphics-symbol" aria-roledescription="circle" transform="translate(368.0607,156.96645665322578)" d="M3.873,0A3.873,3.873,0,1,1,-3.873,0A3.873,3.873,0,1,1,3.873,0" fill="#ffbb78" stroke-width="2" opacity="0.7"/></g><g class="mark-group role-legend" role="graphics-symbol" aria-roledescription="legend" aria-label="Symbol legend titled 'Year' for fill color with 24 values: 1994, 1995, 1996, 1997, 1998, ending with 2017"><g transform="translate(418,0)"><path class="background" aria-hidden="true" d="M0,0h39v326h-39Z" pointer-events="none"/><g><g class="mark-group role-legend-entry"><g transform="translate(0,16)"><path class="background" aria-hidden="true" d="M0,0h0v0h0Z" pointer-events="none"/><g><g class="mark-group role-scope" role="graphics-object" aria-roledescription="group mark container"><g transform="translate(0,0)"><path class="background" aria-hidden="true" d="M0,0h38.24609375v11h-38.24609375Z" pointer-events="none" opacity="1"/><g><g class="mark-symbol role-legend-symbol" pointer-events="none"><path transform="translate(6,6)" d="M5,0A5,5,0,1,1,-5,0A5,5,0,1,1,5,0" fill="#1f77b4" stroke-width="1.5" opacity="0.7"/></g><g class="mark-text role-legend-label" pointer-events="none"><text text-anchor="start" transform="translate(16,9)" font-family="sans-serif" font-size="10px" fill="#000" opacity="1">1994</text></g></g><path class="foreground" aria-hidden="true" d="" pointer-events="none" display="none"/></g><g transform="translate(0,13)"><path class="background" aria-hidden="true" d="M0,0h38.24609375v11h-38.24609375Z" pointer-events="none" opacity="1"/><g><g class="mark-symbol role-legend-symbol" pointer-events="none"><path transform="translate(6,6)" d="M5,0A5,5,0,1,1,-5,0A5,5,0,1,1,5,0" fill="#aec7e8" stroke-width="1.5" opacity="0.7"/></g><g class="mark-text role-legend-label" pointer-events="none"><text text-anchor="start" transform="translate(16,9)" font-family="sans-serif" font-size="10px" fill="#000" opacity="1">1995</text></g></g><path class="foreground" aria-hidden="true" d="" pointer-events="none" display="none"/></g><g transform="translate(0,26)"><path class="background" aria-hidden="true" d="M0,0h38.24609375v11h-38.24609375Z" pointer-events="none" opacity="1"/><g><g class="mark-symbol role-legend-symbol" pointer-events="none"><path transform="translate(6,6)" d="M5,0A5,5,0,1,1,-5,0A5,5,0,1,1,5,0" fill="#ff7f0e" stroke-width="1.5" opacity="0.7"/></g><g class="mark-text role-legend-label" pointer-events="none"><text text-anchor="start" transform="translate(16,9)" font-family="sans-serif" font-size="10px" fill="#000" opacity="1">1996</text></g></g><path class="foreground" aria-hidden="true" d="" pointer-events="none" display="none"/></g><g transform="translate(0,39)"><path class="background" aria-hidden="true" d="M0,0h38.24609375v11h-38.24609375Z" pointer-events="none" opacity="1"/><g><g class="mark-symbol role-legend-symbol" pointer-events="none"><path transform="translate(6,6)" d="M5,0A5,5,0,1,1,-5,0A5,5,0,1,1,5,0" fill="#ffbb78" stroke-width="1.5" opacity="0.7"/></g><g class="mark-text role-legend-label" pointer-events="none"><text text-anchor="start" transform="translate(16,9)" font-family="sans-serif" font-size="10px" fill="#000" opacity="1">1997</text></g></g><path class="foreground" aria-hidden="true" d="" pointer-events="none" display="none"/></g><g transform="translate(0,52)"><path class="background" aria-hidden="true" d="M0,0h38.24609375v11h-38.24609375Z" pointer-events="none" opacity="1"/><g><g class="mark-symbol role-legend-symbol" pointer-events="none"><path transform="translate(6,6)" d="M5,0A5,5,0,1,1,-5,0A5,5,0,1,1,5,0" fill="#2ca02c" stroke-width="1.5" opacity="0.7"/></g><g class="mark-text role-legend-label" pointer-events="none"><text text-anchor="start" transform="translate(16,9)" font-family="sans-serif" font-size="10px" fill="#000" opacity="1">1998</text></g></g><path class="foreground" aria-hidden="true" d="" pointer-events="none" display="none"/></g><g transform="translate(0,65)"><path class="background" aria-hidden="true" d="M0,0h38.24609375v11h-38.24609375Z" pointer-events="none" opacity="1"/><g><g class="mark-symbol role-legend-symbol" pointer-events="none"><path transform="translate(6,6)" d="M5,0A5,5,0,1,1,-5,0A5,5,0,1,1,5,0" fill="#98df8a" stroke-width="1.5" opacity="0.7"/></g><g class="mark-text role-legend-label" pointer-events="none"><text text-anchor="start" transform="translate(16,9)" font-family="sans-serif" font-size="10px" fill="#000" opacity="1">1999</text></g></g><path class="foreground" aria-hidden="true" d="" pointer-events="none" display="none"/></g><g transform="translate(0,78)"><path class="background" aria-hidden="true" d="M0,0h38.24609375v11h-38.24609375Z" pointer-events="none" opacity="1"/><g><g class="mark-symbol role-legend-symbol" pointer-events="none"><path transform="translate(6,6)" d="M5,0A5,5,0,1,1,-5,0A5,5,0,1,1,5,0" fill="#d62728" stroke-width="1.5" opacity="0.7"/></g><g class="mark-text role-legend-label" pointer-events="none"><text text-anchor="start" transform="translate(16,9)" font-family="sans-serif" font-size="10px" fill="#000" opacity="1">2000</text></g></g><path class="foreground" aria-hidden="true" d="" pointer-events="none" display="none"/></g><g transform="translate(0,91)"><path class="background" aria-hidden="true" d="M0,0h38.24609375v11h-38.24609375Z" pointer-events="none" opacity="1"/><g><g class="mark-symbol role-legend-symbol" pointer-events="none"><path transform="translate(6,6)" d="M5,0A5,5,0,1,1,-5,0A5,5,0,1,1,5,0" fill="#ff9896" stroke-width="1.5" opacity="0.7"/></g><g class="mark-text role-legend-label" pointer-events="none"><text text-anchor="start" transform="translate(16,9)" font-family="sans-serif" font-size="10px" fill="#000" opacity="1">2001</text></g></g><path class="foreground" aria-hidden="true" d="" pointer-events="none" display="none"/></g><g transform="translate(0,104)"><path class="background" aria-hidden="true" d="M0,0h38.24609375v11h-38.24609375Z" pointer-events="none" opacity="1"/><g><g class="mark-symbol role-legend-symbol" pointer-events="none"><path transform="translate(6,6)" d="M5,0A5,5,0,1,1,-5,0A5,5,0,1,1,5,0" fill="#9467bd" stroke-width="1.5" opacity="0.7"/></g><g class="mark-text role-legend-label" pointer-events="none"><text text-anchor="start" transform="translate(16,9)" font-family="sans-serif" font-size="10px" fill="#000" opacity="1">2002</text></g></g><path class="foreground" aria-hidden="true" d="" pointer-events="none" display="none"/></g><g transform="translate(0,117)"><path class="background" aria-hidden="true" d="M0,0h38.24609375v11h-38.24609375Z" pointer-events="none" opacity="1"/><g><g class="mark-symbol role-legend-symbol" pointer-events="none"><path transform="translate(6,6)" d="M5,0A5,5,0,1,1,-5,0A5,5,0,1,1,5,0" fill="#c5b0d5" stroke-width="1.5" opacity="0.7"/></g><g class="mark-text role-legend-label" pointer-events="none"><text text-anchor="start" transform="translate(16,9)" font-family="sans-serif" font-size="10px" fill="#000" opacity="1">2003</text></g></g><path class="foreground" aria-hidden="true" d="" pointer-events="none" display="none"/></g><g transform="translate(0,130)"><path class="background" aria-hidden="true" d="M0,0h38.24609375v11h-38.24609375Z" pointer-events="none" opacity="1"/><g><g class="mark-symbol role-legend-symbol" pointer-events="none"><path transform="translate(6,6)" d="M5,0A5,5,0,1,1,-5,0A5,5,0,1,1,5,0" fill="#8c564b" stroke-width="1.5" opacity="0.7"/></g><g class="mark-text role-legend-label" pointer-events="none"><text text-anchor="start" transform="translate(16,9)" font-family="sans-serif" font-size="10px" fill="#000" opacity="1">2004</text></g></g><path class="foreground" aria-hidden="true" d="" pointer-events="none" display="none"/></g><g transform="translate(0,143)"><path class="background" aria-hidden="true" d="M0,0h38.24609375v11h-38.24609375Z" pointer-events="none" opacity="1"/><g><g class="mark-symbol role-legend-symbol" pointer-events="none"><path transform="translate(6,6)" d="M5,0A5,5,0,1,1,-5,0A5,5,0,1,1,5,0" fill="#c49c94" stroke-width="1.5" opacity="0.7"/></g><g class="mark-text role-legend-label" pointer-events="none"><text text-anchor="start" transform="translate(16,9)" font-family="sans-serif" font-size="10px" fill="#000" opacity="1">2005</text></g></g><path class="foreground" aria-hidden="true" d="" pointer-events="none" display="none"/></g><g transform="translate(0,156)"><path class="background" aria-hidden="true" d="M0,0h38.24609375v11h-38.24609375Z" pointer-events="none" opacity="1"/><g><g class="mark-symbol role-legend-symbol" pointer-events="none"><path transform="translate(6,6)" d="M5,0A5,5,0,1,1,-5,0A5,5,0,1,1,5,0" fill="#e377c2" stroke-width="1.5" opacity="0.7"/></g><g class="mark-text role-legend-label" pointer-events="none"><text text-anchor="start" transform="translate(16,9)" font-family="sans-serif" font-size="10px" fill="#000" opacity="1">2006</text></g></g><path class="foreground" aria-hidden="true" d="" pointer-events="none" display="none"/></g><g transform="translate(0,169)"><path class="background" aria-hidden="true" d="M0,0h38.24609375v11h-38.24609375Z" pointer-events="none" opacity="1"/><g><g class="mark-symbol role-legend-symbol" pointer-events="none"><path transform="translate(6,6)" d="M5,0A5,5,0,1,1,-5,0A5,5,0,1,1,5,0" fill="#f7b6d2" stroke-width="1.5" opacity="0.7"/></g><g class="mark-text role-legend-label" pointer-events="none"><text text-anchor="start" transform="translate(16,9)" font-family="sans-serif" font-size="10px" fill="#000" opacity="1">2007</text></g></g><path class="foreground" aria-hidden="true" d="" pointer-events="none" display="none"/></g><g transform="translate(0,182)"><path class="background" aria-hidden="true" d="M0,0h38.24609375v11h-38.24609375Z" pointer-events="none" opacity="1"/><g><g class="mark-symbol role-legend-symbol" pointer-events="none"><path transform="translate(6,6)" d="M5,0A5,5,0,1,1,-5,0A5,5,0,1,1,5,0" fill="#7f7f7f" stroke-width="1.5" opacity="0.7"/></g><g class="mark-text role-legend-label" pointer-events="none"><text text-anchor="start" transform="translate(16,9)" font-family="sans-serif" font-size="10px" fill="#000" opacity="1">2008</text></g></g><path class="foreground" aria-hidden="true" d="" pointer-events="none" display="none"/></g><g transform="translate(0,195)"><path class="background" aria-hidden="true" d="M0,0h38.24609375v11h-38.24609375Z" pointer-events="none" opacity="1"/><g><g class="mark-symbol role-legend-symbol" pointer-events="none"><path transform="translate(6,6)" d="M5,0A5,5,0,1,1,-5,0A5,5,0,1,1,5,0" fill="#c7c7c7" stroke-width="1.5" opacity="0.7"/></g><g class="mark-text role-legend-label" pointer-events="none"><text text-anchor="start" transform="translate(16,9)" font-family="sans-serif" font-size="10px" fill="#000" opacity="1">2009</text></g></g><path class="foreground" aria-hidden="true" d="" pointer-events="none" display="none"/></g><g transform="translate(0,208)"><path class="background" aria-hidden="true" d="M0,0h38.24609375v11h-38.24609375Z" pointer-events="none" opacity="1"/><g><g class="mark-symbol role-legend-symbol" pointer-events="none"><path transform="translate(6,6)" d="M5,0A5,5,0,1,1,-5,0A5,5,0,1,1,5,0" fill="#bcbd22" stroke-width="1.5" opacity="0.7"/></g><g class="mark-text role-legend-label" pointer-events="none"><text text-anchor="start" transform="translate(16,9)" font-family="sans-serif" font-size="10px" fill="#000" opacity="1">2010</text></g></g><path class="foreground" aria-hidden="true" d="" pointer-events="none" display="none"/></g><g transform="translate(0,221)"><path class="background" aria-hidden="true" d="M0,0h38.24609375v11h-38.24609375Z" pointer-events="none" opacity="1"/><g><g class="mark-symbol role-legend-symbol" pointer-events="none"><path transform="translate(6,6)" d="M5,0A5,5,0,1,1,-5,0A5,5,0,1,1,5,0" fill="#dbdb8d" stroke-width="1.5" opacity="0.7"/></g><g class="mark-text role-legend-label" pointer-events="none"><text text-anchor="start" transform="translate(16,9)" font-family="sans-serif" font-size="10px" fill="#000" opacity="1">2011</text></g></g><path class="foreground" aria-hidden="true" d="" pointer-events="none" display="none"/></g><g transform="translate(0,234)"><path class="background" aria-hidden="true" d="M0,0h38.24609375v11h-38.24609375Z" pointer-events="none" opacity="1"/><g><g class="mark-symbol role-legend-symbol" pointer-events="none"><path transform="translate(6,6)" d="M5,0A5,5,0,1,1,-5,0A5,5,0,1,1,5,0" fill="#17becf" stroke-width="1.5" opacity="0.7"/></g><g class="mark-text role-legend-label" pointer-events="none"><text text-anchor="start" transform="translate(16,9)" font-family="sans-serif" font-size="10px" fill="#000" opacity="1">2012</text></g></g><path class="foreground" aria-hidden="true" d="" pointer-events="none" display="none"/></g><g transform="translate(0,247)"><path class="background" aria-hidden="true" d="M0,0h38.24609375v11h-38.24609375Z" pointer-events="none" opacity="1"/><g><g class="mark-symbol role-legend-symbol" pointer-events="none"><path transform="translate(6,6)" d="M5,0A5,5,0,1,1,-5,0A5,5,0,1,1,5,0" fill="#9edae5" stroke-width="1.5" opacity="0.7"/></g><g class="mark-text role-legend-label" pointer-events="none"><text text-anchor="start" transform="translate(16,9)" font-family="sans-serif" font-size="10px" fill="#000" opacity="1">2013</text></g></g><path class="foreground" aria-hidden="true" d="" pointer-events="none" display="none"/></g><g transform="translate(0,260)"><path class="background" aria-hidden="true" d="M0,0h38.24609375v11h-38.24609375Z" pointer-events="none" opacity="1"/><g><g class="mark-symbol role-legend-symbol" pointer-events="none"><path transform="translate(6,6)" d="M5,0A5,5,0,1,1,-5,0A5,5,0,1,1,5,0" fill="#1f77b4" stroke-width="1.5" opacity="0.7"/></g><g class="mark-text role-legend-label" pointer-events="none"><text text-anchor="start" transform="translate(16,9)" font-family="sans-serif" font-size="10px" fill="#000" opacity="1">2014</text></g></g><path class="foreground" aria-hidden="true" d="" pointer-events="none" display="none"/></g><g transform="translate(0,273)"><path class="background" aria-hidden="true" d="M0,0h38.24609375v11h-38.24609375Z" pointer-events="none" opacity="1"/><g><g class="mark-symbol role-legend-symbol" pointer-events="none"><path transform="translate(6,6)" d="M5,0A5,5,0,1,1,-5,0A5,5,0,1,1,5,0" fill="#aec7e8" stroke-width="1.5" opacity="0.7"/></g><g class="mark-text role-legend-label" pointer-events="none"><text text-anchor="start" transform="translate(16,9)" font-family="sans-serif" font-size="10px" fill="#000" opacity="1">2015</text></g></g><path class="foreground" aria-hidden="true" d="" pointer-events="none" display="none"/></g><g transform="translate(0,286)"><path class="background" aria-hidden="true" d="M0,0h38.24609375v11h-38.24609375Z" pointer-events="none" opacity="1"/><g><g class="mark-symbol role-legend-symbol" pointer-events="none"><path transform="translate(6,6)" d="M5,0A5,5,0,1,1,-5,0A5,5,0,1,1,5,0" fill="#ff7f0e" stroke-width="1.5" opacity="0.7"/></g><g class="mark-text role-legend-label" pointer-events="none"><text text-anchor="start" transform="translate(16,9)" font-family="sans-serif" font-size="10px" fill="#000" opacity="1">2016</text></g></g><path class="foreground" aria-hidden="true" d="" pointer-events="none" display="none"/></g><g transform="translate(0,299)"><path class="background" aria-hidden="true" d="M0,0h38.24609375v11h-38.24609375Z" pointer-events="none" opacity="1"/><g><g class="mark-symbol role-legend-symbol" pointer-events="none"><path transform="translate(6,6)" d="M5,0A5,5,0,1,1,-5,0A5,5,0,1,1,5,0" fill="#ffbb78" stroke-width="1.5" opacity="0.7"/></g><g class="mark-text role-legend-label" pointer-events="none"><text text-anchor="start" transform="translate(16,9)" font-family="sans-serif" font-size="10px" fill="#000" opacity="1">2017</text></g></g><path class="foreground" aria-hidden="true" d="" pointer-events="none" display="none"/></g></g></g><path class="foreground" aria-hidden="true" d="" pointer-events="none" display="none"/></g></g><g class="mark-text role-legend-title" pointer-events="none"><text text-anchor="start" transform="translate(0,9)" font-family="sans-serif" font-size="11px" font-weight="bold" fill="#000" opacity="1">Year</text></g></g><path class="foreground" aria-hidden="true" d="" pointer-events="none" display="none"/></g></g><g class="mark-group role-title"><g transform="translate(200,-22)"><path class="background" aria-hidden="true" d="M0,0h0v0h0Z" pointer-events="none"/><g><g class="mark-text role-title-text" role="graphics-symbol" aria-roledescription="title" aria-label="Title text 'Annual Production Volume vs Average Price'" pointer-events="none"><text text-anchor="middle" transform="translate(0,10)" font-family="sans-serif" font-size="13px" font-weight="bold" fill="#000" opacity="1">Annual Production Volume vs Average Price</text></g></g><path class="foreground" aria-hidden="true" d="" pointer-events="none" display="none"/></g></g></g><path class="foreground" aria-hidden="true" d="" display="none"/></g></g></g></svg>